<svg xmlns="http://www.w3.org/2000/svg" viewBox="0 0 1080 1920" preserveAspectRatio="xMidYMid slice">
<defs><linearGradient id="g" x1="0" y1="0" x2="0" y2="1"><stop offset="0" stop-color="#352b2e"/><stop offset=".55" stop-color="#12060a"/><stop offset="1" stop-color="#090305"/></linearGradient><radialGradient id="gl"><stop stop-color="#ff2e4d" stop-opacity=".55"/><stop offset="1" stop-color="#ff2e4d" stop-opacity="0"/></radialGradient><filter id="blur"><feGaussianBlur stdDeviation="18"/></filter></defs><rect width="1080" height="1920" fill="url(#g)"/><ellipse cx="540" cy="480" rx="420" ry="320" fill="url(#gl)" opacity=".22" filter="url(#blur)"/><path d="M540 560L-80 1450H70Z" fill="#ff375c" opacity=".22"/><path d="M540 560L80 1450H230Z" fill="#ff2e4d" opacity=".22"/><path d="M540 560L240 1450H390Z" fill="#ff375c" opacity=".22"/><path d="M540 560L400 1450H550Z" fill="#ff2e4d" opacity=".22"/><path d="M540 560L560 1450H710Z" fill="#ff375c" opacity=".22"/><path d="M540 560L720 1450H870Z" fill="#ff2e4d" opacity=".22"/><path d="M540 560L880 1450H1030Z" fill="#ff375c" opacity=".22"/><path d="M540 560L1040 1450H1190Z" fill="#ff2e4d" opacity=".22"/><circle cx="540" cy="900" r="280" fill="none" stroke="#ddd" stroke-opacity=".22" stroke-width="18"/><circle cx="820.0" cy="900.0" r="12" fill="#ff2e4d"/><circle cx="782.5" cy="1040.0" r="12" fill="#ff2e4d"/><circle cx="680.0" cy="1142.5" r="12" fill="#ff2e4d"/><circle cx="540.0" cy="1180.0" r="12" fill="#ff2e4d"/><circle cx="400.0" cy="1142.5" r="12" fill="#ff2e4d"/><circle cx="297.5" cy="1040.0" r="12" fill="#ff2e4d"/><circle cx="260.0" cy="900.0" r="12" fill="#ff2e4d"/><circle cx="297.5" cy="760.0" r="12" fill="#ff2e4d"/><circle cx="400.0" cy="657.5" r="12" fill="#ff2e4d"/><circle cx="540.0" cy="620.0" r="12" fill="#ff2e4d"/><circle cx="680.0" cy="657.5" r="12" fill="#ff2e4d"/><circle cx="782.5" cy="760.0" r="12" fill="#ff2e4d"/><path d="M150 1450 Q540 1050 930 1450" fill="none" stroke="#e6d24a" stroke-width="28" opacity=".5"/><rect x="70" y="70" width="940" height="120" rx="22" fill="#000" opacity=".28"/><text x="540" y="145" text-anchor="middle" fill="#ff375c" opacity=".72" font-family="sans-serif" font-size="34" letter-spacing="6">CURSED CARNIVAL</text></svg>