<svg xmlns="http://www.w3.org/2000/svg" viewBox="0 0 1080 1920" preserveAspectRatio="xMidYMid slice">
<defs><linearGradient id="g" x1="0" y1="0" x2="0" y2="1"><stop offset="0" stop-color="#2c2e2b"/><stop offset=".55" stop-color="#070a06"/><stop offset="1" stop-color="#030503"/></linearGradient><radialGradient id="gl"><stop stop-color="#7dd94a" stop-opacity=".55"/><stop offset="1" stop-color="#7dd94a" stop-opacity="0"/></radialGradient><filter id="blur"><feGaussianBlur stdDeviation="18"/></filter></defs><rect width="1080" height="1920" fill="url(#g)"/><ellipse cx="540" cy="480" rx="420" ry="320" fill="url(#gl)" opacity=".22" filter="url(#blur)"/><path d="M0 1450 Q200 1350 400 1450T800 1450T1080 1450V1920H0Z" fill="#0b1710"/><path d="M-40 1500 L5.0 1260 L50 1500 Z" fill="#07100a" opacity=".9"/><path d="M45 1500 L99.5 1213 L154 1500 Z" fill="#07100a" opacity=".9"/><path d="M130 1500 L194.0 1166 L258 1500 Z" fill="#07100a" opacity=".9"/><path d="M215 1500 L288.5 1119 L362 1500 Z" fill="#07100a" opacity=".9"/><path d="M300 1500 L383.0 1072 L466 1500 Z" fill="#07100a" opacity=".9"/><path d="M385 1500 L432.5 1025 L480 1500 Z" fill="#07100a" opacity=".9"/><path d="M470 1500 L527.0 1238 L584 1500 Z" fill="#07100a" opacity=".9"/><path d="M555 1500 L621.5 1191 L688 1500 Z" fill="#07100a" opacity=".9"/><circle cx="160" cy="1250" r="10" fill="#d5f76a" opacity=".55"/><circle cx="360" cy="1320" r="10" fill="#d5f76a" opacity=".55"/><circle cx="700" cy="1280" r="10" fill="#d5f76a" opacity=".55"/><circle cx="900" cy="1210" r="10" fill="#d5f76a" opacity=".55"/><rect x="70" y="70" width="940" height="120" rx="22" fill="#000" opacity=".28"/><text x="540" y="145" text-anchor="middle" fill="#96ff58" opacity=".72" font-family="sans-serif" font-size="34" letter-spacing="6">SWAMP OF THE DEAD</text></svg>